<svg xmlns="http://www.w3.org/2000/svg" viewBox="0 0 840 840">
  <path fill="rgb(255 228 230)"
    d="M604 0h236v135l-1 1q-17 5-33 12c-32 13-61 30-88 50-26 19-51 41-74 63-29 28-56 58-82 89l-69 82c-29 35-59 69-90 101-45 47-94 89-146 127-40 29-82 54-127 75-36 18-74 32-114 39l-16 3V611l2-1a776 776 0 0 0 163-101c41-34 78-71 112-111a1264 1264 0 0 0 81-107l56-84A1192 1192 0 0 1 545 46c18-17 37-32 57-45a11 11 0 0 0 2-1Z" />
  <path fill="#fff"
    d="m0 777 16-3c40-7 78-21 114-39 45-21 87-46 127-75 52-38 101-80 146-127 31-32 61-66 90-101l69-82c26-31 53-61 82-89 23-22 48-44 74-63 27-20 56-37 88-50q16-7 33-12l1-1v279c-23 7-45 16-66 27a1083 1083 0 0 0-158 101l-9 7c-24 16-47 34-68 53l-15 12-70 52a1733 1733 0 0 1-287 173 11 11 0 0 0-2 1H0ZM604 0a11 11 0 0 1-2 1 686 686 0 0 0-128 122c-21 27-41 56-60 85l-56 83a1264 1264 0 0 1-81 107c-34 40-71 77-112 111A776 776 0 0 1 2 610l-2 1V425l4-2c41-26 77-58 109-94a816 816 0 0 0 60-79l46-67c16-24 32-47 51-70a868 868 0 0 1 68-73c14-14 29-27 45-39a9 9 0 0 0 1-1Z" />
  <path fill="rgb(255 228 230)"
    d="M165 840a11 11 0 0 1 2-1 1862 1862 0 0 0 287-173l70-52 15-12c21-19 44-37 68-53l9-7a703 703 0 0 1 158-101c21-11 43-20 66-27v211l-4 1-21 9-27 12-17 8-23 12-12 7-12 6-10 6-6 4-12 7-9 5-14 8-8 5-6 3-8 5-17 10-21 13-14 9-18 12-16 12-20 14-10 8-7 4-17 13-9 7a50 50 0 0 0-5 4l-6 4-5 4c-2 1-4 1-5 3ZM384 0a9 9 0 0 1-1 1c-16 12-31 25-45 39a868 868 0 0 0-68 73c-19 23-35 46-51 70l-46 67a816 816 0 0 1-60 79c-32 36-68 68-109 94l-4 2V194a18 18 0 0 0 2-2l38-50a727 727 0 0 0 68-112 117 117 0 0 0 8-19l3-8a12 12 0 0 0 0-3Z" />
  <path fill="#fff"
    d="M481 840c1-2 3-2 5-3l5-4 6-4a50 50 0 0 1 5-4l9-7 17-13 7-4 10-8 20-14 16-12 18-12 14-9 21-13 17-10 8-5 6-3 8-5 14-8 9-5 12-7 6-4 10-6 12-6 12-7 23-12 17-8 27-12 21-9 4-1v132l-1 1-43 29a541 541 0 0 0-66 53Zm12-7h1v-1ZM119 0a12 12 0 0 1 0 3l-3 8a117 117 0 0 1-8 19 727 727 0 0 1-68 112L2 192a18 18 0 0 1-2 2V60a11 11 0 0 0 1-1C14 40 24 20 34 0Z" />
  <path fill="rgb(255 228 230)" d="M730 840a434 434 0 0 1 66-53l43-29 1-1v83ZM34 0C24 20 14 40 1 59a11 11 0 0 1-1 1V0Zm459 833 1-1v1h-1Z" />
</svg>
